<svg width="171" height="120" viewBox="0 0 171 120" fill="none" xmlns="http://www.w3.org/2000/svg">
<g clip-path="url(#clip0_9_37)">
<path fill-rule="evenodd" clip-rule="evenodd" d="M67.35 112.9C73.2 116.8 82.65 116.8 88.5 112.9L157.35 67C163.2 63.1 163.2 56.8 157.35 52.9L88.5 7C82.65 3.1 73.2 3.1 67.35 7C61.5 10.9 61.5 17.2 67.35 21.1L125.55 60L67.35 98.8C61.65 102.7 61.65 109.1 67.35 112.9Z" fill="#1D1D1D"/>
</g>
<g clip-path="url(#clip1_9_37)">
<path fill-rule="evenodd" clip-rule="evenodd" d="M16.35 112.9C22.2 116.8 31.65 116.8 37.5 112.9L106.35 67C112.2 63.1 112.2 56.8 106.35 52.9L37.5 7C31.65 3.1 22.2 3.1 16.35 7C10.5 10.9 10.5 17.2 16.35 21.1L74.55 60L16.35 98.8C10.65 102.7 10.65 109.1 16.35 112.9Z" fill="#1D1D1D"/>
</g>
<defs>
<clipPath id="clip0_9_37">
<rect width="120" height="120" fill="white" transform="matrix(-1 0 0 -1 171 120)"/>
</clipPath>
<clipPath id="clip1_9_37">
<rect width="120" height="120" fill="white" transform="matrix(-1 0 0 -1 120 120)"/>
</clipPath>
</defs>
</svg>
