<svg width="171" height="120" viewBox="0 0 171 120" fill="none" xmlns="http://www.w3.org/2000/svg">
<g clip-path="url(#clip0_9_56)">
<path fill-rule="evenodd" clip-rule="evenodd" d="M154.65 7.1C148.8 3.2 139.35 3.2 133.5 7.1L64.65 53C58.8 56.9 58.8 63.2 64.65 67.1L133.5 113C139.35 116.9 148.8 116.9 154.65 113C160.5 109.1 160.5 102.8 154.65 98.9L96.45 60L154.65 21.2C160.35 17.3 160.35 10.9 154.65 7.1Z" fill="#1D1D1D"/>
</g>
<g clip-path="url(#clip1_9_56)">
<path fill-rule="evenodd" clip-rule="evenodd" d="M103.65 7.1C97.8 3.2 88.35 3.2 82.5 7.1L13.65 53C7.80001 56.9 7.80001 63.2 13.65 67.1L82.5 113C88.35 116.9 97.8 116.9 103.65 113C109.5 109.1 109.5 102.8 103.65 98.9L45.45 60L103.65 21.2C109.35 17.3 109.35 10.9 103.65 7.1Z" fill="#1D1D1D"/>
</g>
<defs>
<clipPath id="clip0_9_56">
<rect width="120" height="120" fill="white" transform="translate(51)"/>
</clipPath>
<clipPath id="clip1_9_56">
<rect width="120" height="120" fill="white"/>
</clipPath>
</defs>
</svg>
