<?xml version="1.0" encoding="utf-8"?>
<!-- Generator: Adobe Illustrator 19.0.0, SVG Export Plug-In . SVG Version: 6.00 Build 0)  -->
<svg version="1.1" id="Layer_1" xmlns="http://www.w3.org/2000/svg" xmlns:xlink="http://www.w3.org/1999/xlink" x="0px" y="0px"
	 viewBox="0 0 64 64" style="enable-background:new 0 0 64 64;" xml:space="preserve">
<style type="text/css">
	.st0{fill:none;stroke:#000000;stroke-miterlimit:10;}
	.st1{stroke:#000000;stroke-linecap:round;stroke-linejoin:round;stroke-miterlimit:10;}
</style>
<g id="XMLID_1_">
	<path id="XMLID_55_" class="st0" d="M44.8,57.4l0.5-0.1l0,0c0.1-0.1,0.4-0.2,0.6-0.4c0.3-0.3,0.4-0.7,0.4-1.1
		c0-0.4-0.2-0.8-0.5-1.1c-0.6-0.6-1.6-0.6-2.2,0c-0.3,0.3-0.4,0.7-0.4,1.1C43.3,56.7,44,57.4,44.8,57.4z M45,55.6
		c0.1,0.1,0.1,0.1,0.1,0.2c0,0.1,0,0.2-0.1,0.2c-0.2,0.2-0.5,0-0.5-0.2c0-0.1,0-0.2,0.1-0.2c0.1-0.1,0.1-0.1,0.2-0.1h0
		C44.8,55.5,44.9,55.5,45,55.6z"/>
	<path id="XMLID_58_" class="st0" d="M12.8,41.5c-0.3-0.3-0.6-0.5-1-0.5c-0.3,0-0.6,0-0.9,0.2c0,0,0,0,0,0c-0.1,0-0.1,0.1-0.2,0.1
		c0,0,0,0,0,0c0,0,0,0,0,0c-0.1,0-0.1,0.1-0.1,0.1c0,0,0,0,0,0c-0.2,0.2-0.3,0.5-0.3,0.9c0,0.4,0.1,0.8,0.4,1.1
		c0.3,0.3,0.6,0.5,1,0.5c0,0,0.1,0,0.1,0c0.3,0,0.7-0.1,1-0.3c0,0,0,0,0,0c0,0,0,0,0,0c0,0,0,0,0,0c0,0,0,0,0,0
		c0.3-0.3,0.5-0.6,0.5-1C13.2,42.2,13,41.8,12.8,41.5z M11.6,42.8c-0.1,0-0.2,0-0.2-0.1c-0.1-0.1-0.1-0.1-0.1-0.2
		c0-0.1,0-0.1,0.1-0.2c0.1,0,0.1-0.1,0.2-0.1v0c0,0,0,0,0,0c0,0,0,0,0,0l0,0c0.1,0,0.2,0,0.2,0.1c0.1,0.1,0.1,0.1,0.1,0.2
		c0,0.1,0,0.2-0.1,0.2C11.7,42.7,11.7,42.8,11.6,42.8z"/>
	<path id="XMLID_61_" class="st1" d="M55.1,18.6l1.8-1.7c0.9-0.9,1.3-2,1.2-3.1c0-1-0.5-1.9-1.2-2.7c-0.3-0.3-0.6-0.5-0.9-0.7
		c1.8-2.3,1.2-4.6,0-5.8c-0.7-0.7-1.6-1-2.6-1c-1,0-2,0.4-3,1.2l-0.3,0.3c-0.2-0.4-0.4-0.7-0.7-1.1c-1.2-1.3-3.6-1.9-5.9-0.1
		l-5.2,4.9c-0.2-0.1-0.4-0.2-0.7-0.2c-0.6-0.1-1.3-0.1-1.9,0.2c-1.2,0.4-2,1.4-2.2,2.6c-0.4-0.1-0.9-0.2-1.3-0.1
		c-0.8,0.1-1.5,0.5-2,1.1c0-0.6-0.1-1.2-0.3-1.7c-0.5-1.1-1.3-2-2.5-2.5c-1.2-0.5-2.5-0.4-3.7,0c-1.3,0.5-2.3,1.6-2.9,3.1l-4.3,11.9
		l-3.6,9.7c-0.2,0.4-0.7,1.5-1.2,3.1c-0.7,0-1.3,0.2-1.8,0.6l-3.8,3.2c-0.6,0.5-0.9,1.2-1,1.9c-0.1,0.7,0.2,1.5,0.6,2l10.5,12.6
		c0.5,0.6,1.3,1,2.1,1c0.7,0,1.3-0.2,1.8-0.6l3.8-3.2c0.6-0.5,0.9-1.2,1-1.9c0-0.4,0-0.8-0.1-1.1c0.2-0.2,0.4-0.5,0.7-0.8
		c0.5-0.5,1.2-1.1,2.1-1.5c0.3,1,0.7,2.3,1.4,3.4c-0.5,0.5-0.8,1.2-0.8,1.9l0,5c0,0.7,0.3,1.6,0.8,2.1c0.5,0.5,1.2,1,2,1h0l16.4-0.3
		c1.5,0,2.8-1.3,2.8-2.9l0-5c0-0.7-0.3-1.5-0.8-2c-0.1-0.1-0.3-0.3-0.5-0.4c0,0,0,0,0,0c0.4-0.8,0.4-2,0.5-3.4
		c0.3-1.9-0.2-3.9-0.2-4.5V31.7l5.9-5.7c2.3-2.2,2.2-5,0.7-6.5C55.7,19.1,55.5,18.8,55.1,18.6z M22.4,51.3c0,0.1,0,0.1-0.1,0.1
		l-3.8,3.2c-0.1,0.1-0.2,0.1-0.3,0L7.7,42c0,0,0-0.1,0-0.1c0-0.1,0-0.1,0.1-0.1l3.8-3.2c0,0,0.1,0,0.1,0l0,0c0.1,0,0.1,0,0.1,0.1
		l8.3,10l2.2,2.6l0,0C22.4,51.2,22.4,51.3,22.4,51.3z M23.7,47.8c-0.1,0.1-0.3,0.3-0.4,0.4l-0.9-1l-8.4-10.1
		c0.5-1.8,1.1-3.1,1.1-3.1h0L19,24l4.3-11.8c0.7-1.7,2.2-2.1,3.2-1.7c0.9,0.3,1.6,1.4,0.9,3.2l-2.6,6.6c-0.1,0.1-0.3,0.9-0.5,2
		c-0.1,0.9-0.2,2.2,0.2,3.6c-0.5,0.1-1,0.4-1.4,0.7c-0.6,0.5-1,1.2-1.2,2c-0.2,0.8-0.1,1.7,0.2,2.6l1.9,5.4c-0.7,0.5-1.5,1-2.4,1.4
		l-0.9,0.5l1.2,2.3l0.9-0.5c0.8-0.4,1.4-0.8,2.1-1.2l2.2,6.3C25.5,46.2,24.4,47.1,23.7,47.8z M29.1,28.5c-0.3-0.7-0.9-1.7-1.7-2.1
		c-0.6-1-0.6-2.2-0.6-3.2l2.5-2.3l0,8L29.1,28.5z M47.7,53.1L47.7,53.1C47.8,53.1,47.7,53.1,47.7,53.1c0,0,0.1,0.1,0.1,0.2l0,5
		c0,0.1,0,0.1-0.1,0.1c0,0-0.1,0.1-0.1,0.1l-16.4,0.1c-0.1,0-0.1,0-0.1-0.1c0,0-0.1-0.1-0.1-0.1l0-5c0-0.1,0-0.2,0-0.2
		c0,0,0.1-0.1,0.2-0.1l13.8,0L47.7,53.1 M33.5,31.9l2,0.1V12.1c0-0.4,0.5-0.7,0.9-0.8c0.3-0.1,0.9,0,0.9,0c0,0,0.2,0.1,0.2,0.8v2.8
		v1v16.6h2V15.9v-1c0-1,1.1-1.3,1.4-1.4c0.2,0,0.9-0.1,1.2,0.4c0.1,0.1,0.2,0.4,0.2,1l0.2,6.1l0,0v13.5h2V20.9
		c0-0.2,0.4-0.5,0.4-0.7c0.1-0.5,0.6-0.9,1-0.9l0.2,0c0.3-0.1,0.6-0.1,0.9,0.1c0.3,0.3,0.8,0.2,0.8,0.8l0.1,16.1L47.9,43l0,0.4
		c0,0.4-0.1,2-0.3,3.8c-0.3,2.2-1,3.3-1.4,3.3l-0.6,0l-13.8,0.1c-0.9-1-1.6-3.2-1.8-4.5l-5.4-15.6c-0.1-0.4-0.4-1.3,0.2-1.8
		c0.3-0.3,0.7-0.3,1.2-0.1c0,0,0.5,0.2,0.9,1.3l2.4,6.4l0,1.9l2.6,0l-0.1-2.6l0-0.7l0.1-20c0-0.4,0.1-1.1,0.6-1.1
		c0.2,0,1-0.1,1.2,0.4c0.1,0.2-0.1,0.7-0.1,0.7 M47.5,5.9c0.1,0.1,0.7,0.8,0,1.8l-0.7,0.7l-0.3,0.3l0,0l-3,2.9
		c-0.2-0.1-0.4-0.2-0.6-0.3c-0.7-0.3-1.4-0.3-2.2-0.2c-0.2,0-0.3,0.1-0.5,0.2c0-0.1-0.1-0.3-0.1-0.4L45.1,6
		C46.5,5,47.3,5.6,47.5,5.9z M49,9.8c0.1-0.1,0.3-0.3,0.4-0.4l2.8-2.7c0.9-0.8,1.7-0.6,2-0.3c0.3,0.3,0.7,1.2-0.2,2.3l-2.2,2
		c-0.1,0.1-0.1,0.1-0.2,0.1l-3.2,3l0,0c0,0,0,0,0,0l-3,2.8c-0.1,0-0.2,0.1-0.3,0.1l0-2c0-0.4,0-0.8-0.1-1.2l3.5-3.4L49,9.8z
		 M50.6,19.4L50.6,19.4c-0.1,0.1-0.2,0.1-0.2,0.2l-0.2,0.2c-0.2-0.9-0.6-1.7-1.3-2.3c-0.1-0.1-0.2-0.1-0.2-0.2l4.9-4.5
		c0.8-0.7,1.5-0.1,1.6,0.1c0.5,0.5,0.7,1.3-0.1,2.1L50.6,19.4z M49.5,23.4l1.8-1.4l0.9-0.7c1.1-0.9,1.9-0.3,2.1-0.1
		c0.6,0.6,0.4,1.8-0.8,2.9l-4,3.8V23.4z M29.3,17.3l-0.8,0.8l0.8-2.2L29.3,17.3z"/>
</g>
</svg>
